<svg width="28" height="21" viewBox="0 0 28 21" fill="none" xmlns="http://www.w3.org/2000/svg">
<g clip-path="url(#clip0_849_22182)">
<path d="M6.75195 3.38962C11.0328 3.38962 14.1975 4.69279 14.958 9.5527H17.8105L21.8535 3.38962H26.4639L20.8184 12.0185L23.3428 15.7168H27.998V20.6474H21.8545L17.6377 14.4843H14.958C14.1975 19.3447 11.0329 20.6474 6.75195 20.6474H0.0957031V15.7168H7.49121C9.09403 15.7168 11.1904 15.1004 11.1904 12.0185C11.1903 8.93701 9.09361 8.32028 7.49121 8.32028H4.04004V11.7724H0.0957031V3.38962H6.75195ZM17.1455 0.0927429C18.8674 0.0928653 20.1465 0.929599 20.1465 3.38962H14.1436C14.1436 0.929419 15.4234 0.0927429 17.1455 0.0927429Z" fill="#F0E8D9"/>
</g>
<defs>
<clipPath id="clip0_849_22182">
<rect width="28" height="20.6755" fill="white"/>
</clipPath>
</defs>
</svg>
