<svg width="53" height="52" viewBox="0 0 53 52" fill="none" xmlns="http://www.w3.org/2000/svg">
<g clip-path="url(#clip0_1_2)">
<path d="M37.2905 45.2819C36.8059 44.0635 36.236 42.9067 35.6125 41.7763C34.9556 40.5854 34.2825 39.4037 33.6204 38.2158C33.3564 37.7423 33.3965 37.6629 33.9502 37.6195C34.5569 37.5722 35.1246 37.7341 35.661 38.0057C36.6667 38.5148 37.4905 39.2437 38.1359 40.1603C39.5695 42.1972 40.2602 44.4415 39.9621 46.9481C39.9545 47.0117 39.9498 47.0756 39.9388 47.1387C39.6687 48.6942 38.8816 49.1655 37.4118 48.5986C34.342 47.4147 31.5064 43.5807 31.739 40.2315C31.7796 39.6464 31.9225 39.0985 32.2305 38.595C32.4258 38.2752 32.5824 38.2315 32.801 38.5927C33.3393 39.4824 33.918 40.3478 34.454 41.2389C35.2555 42.571 36.1693 43.8259 37.0595 45.0975C37.1103 45.1698 37.1405 45.2713 37.2905 45.2814V45.2819Z" fill="#ABD600"/>
<path d="M14.6783 45.3158C15.5473 44.3201 16.2947 43.2441 17.0022 42.1408C17.7364 40.9959 18.4479 39.8363 19.1815 38.6907C19.494 38.2029 19.5693 38.2146 19.8594 38.7339C20.4619 39.8128 20.4268 40.9647 20.1267 42.0954C19.3362 45.0739 17.489 47.2182 14.7251 48.5313C13.1999 49.256 12.2555 48.7577 12.0821 47.0921C11.7122 43.5417 12.8799 40.5744 15.7435 38.3606C16.4017 37.8518 17.1763 37.5769 18.027 37.6124C18.6076 37.6365 18.6581 37.7296 18.3832 38.2208C17.2421 40.2592 16.0612 42.2756 15.0779 44.398C14.9376 44.7007 14.8112 45.0098 14.6783 45.316V45.3158Z" fill="#ABD600"/>
<path d="M14.7892 6.70275C15.7366 9.08436 16.9651 11.311 18.2583 13.5043C18.3895 13.7265 18.6876 13.9742 18.5212 14.2138C18.3589 14.447 17.9918 14.3862 17.7052 14.3632C17.0197 14.308 16.3996 14.0625 15.8291 13.6845C13.1911 11.9367 11.468 7.7278 12.1242 4.63499C12.3986 3.34204 13.0977 2.91358 14.3655 3.31514C15.812 3.77359 16.9648 4.68571 17.9557 5.80239C19.285 7.30074 20.1871 9.00253 20.2838 11.0524C20.3205 11.8322 20.1963 12.5869 19.8469 13.2902C19.6 13.787 19.4904 13.7929 19.2043 13.3339C18.0022 11.404 16.8295 9.45509 15.4721 7.62692C15.2437 7.31952 15.0167 7.01127 14.7889 6.70331L14.7892 6.70275Z" fill="#ABD600"/>
<path d="M37.2823 6.72203C36.4744 7.63724 35.7952 8.63651 35.147 9.65596C34.3823 10.859 33.6461 12.0799 32.8879 13.2871C32.5538 13.8192 32.4258 13.8142 32.1498 13.2355C31.5728 12.0266 31.6126 10.7634 31.9926 9.52846C32.7752 6.98572 34.3302 5.0351 36.6608 3.72478C37.0677 3.49611 37.5048 3.34115 37.9627 3.24335C38.9653 3.02926 39.5807 3.38655 39.8427 4.37741C40.2061 5.75134 40.0503 7.11631 39.676 8.45717C39.101 10.5168 38.0703 12.2948 36.3088 13.5754C35.6248 14.0728 34.871 14.4228 33.9917 14.3693C33.4178 14.3343 33.3676 14.2474 33.6475 13.7472C34.8906 11.5253 36.183 9.32922 37.1736 6.97591C37.2094 6.89101 37.2462 6.80638 37.2823 6.72147V6.72203Z" fill="#ABD600"/>
<path d="M3.93539 26.0319C5.17789 26.2081 6.41396 26.2908 7.6503 26.3424C9.05701 26.4012 10.4657 26.4163 11.8735 26.4508C12.3337 26.462 12.3919 26.5469 12.1588 26.9507C11.6323 27.862 10.8454 28.4821 9.86629 28.8279C6.82196 29.9031 3.97602 29.3298 1.27636 27.7188C0.850142 27.4644 0.491177 27.1135 0.217961 26.6873C-0.0586188 26.2558 -0.0681463 25.8203 0.174246 25.3708C0.336495 25.0702 0.558431 24.8216 0.813713 24.5991C2.80105 22.867 7.56595 21.8465 10.487 23.4564C11.1388 23.8156 11.7502 24.2228 12.1339 24.8846C12.4312 25.3977 12.3597 25.5073 11.7771 25.523C9.25036 25.5919 6.72164 25.6205 4.20692 25.917C4.11978 25.9274 4.01133 25.8864 3.93539 26.0319Z" fill="#ABD600"/>
<path d="M45.3565 37.2885C44.6226 36.6028 43.8127 36.0354 42.9841 35.4971C41.5474 34.5639 40.1034 33.6412 38.6499 32.7346C38.3016 32.5175 38.3013 32.3846 38.6401 32.179C39.6506 31.5647 40.7591 31.5008 41.8475 31.7707C44.9558 32.5416 47.2216 34.3706 48.5258 37.3309C48.5645 37.4186 48.5939 37.5105 48.6244 37.6013C49.0649 38.9166 48.5844 39.7141 47.2143 39.9445C45.8707 40.1706 44.562 39.9888 43.2867 39.5628C41.2818 38.8934 39.5228 37.8638 38.3512 36.0267C37.9211 35.3519 37.6607 34.6208 37.6843 33.8068C37.6991 33.2965 37.7664 33.2491 38.2055 33.5055C39.8781 34.4835 41.5466 35.4685 43.2929 36.3122C43.9781 36.6432 44.6685 36.9632 45.3565 37.2883V37.2885Z" fill="#ABD600"/>
<path d="M6.68416 37.163C6.96775 37.2011 7.11094 37.0868 7.2631 37.0176C9.49535 36.0023 11.6242 34.7943 13.7348 33.5518C13.8831 33.4646 14.0506 33.2858 14.2067 33.375C14.4012 33.4859 14.3651 33.7451 14.3541 33.9463C14.3059 34.8528 13.9837 35.6677 13.4328 36.3784C11.8159 38.4638 9.62453 39.5418 7.0633 39.9459C6.23581 40.0765 5.40607 40.1023 4.58418 39.8943C3.41509 39.5984 3.01213 38.9418 3.35989 37.7988C4.02373 35.6167 5.50975 34.0887 7.38416 32.9005C8.40669 32.2521 9.51329 31.7962 10.7365 31.6788C11.6144 31.5944 12.4657 31.6877 13.2562 32.0991C13.7713 32.367 13.7746 32.4886 13.2935 32.7907C11.3961 33.9822 9.47237 35.1331 7.65793 36.4524C7.35333 36.6737 7.04985 36.8965 6.68444 37.1636L6.68416 37.163Z" fill="#ABD600"/>
<path d="M48.0395 26.0009C46.8241 25.7823 45.5987 25.701 44.3744 25.6405C42.9677 25.5707 41.5579 25.5587 40.1495 25.5222C39.6597 25.5096 39.6034 25.4236 39.8452 25.0008C40.2381 24.3128 40.8139 23.8163 41.512 23.4553C43.2765 22.5429 45.1492 22.5323 47.0435 22.8383C48.2664 23.0358 49.4372 23.4183 50.504 24.0729C50.8605 24.2918 51.1872 24.5482 51.4772 24.8506C52.2024 25.6066 52.2156 26.315 51.5055 27.0884C51.0434 27.5917 50.4659 27.9465 49.8573 28.2328C47.3439 29.4165 44.7659 29.8141 42.0945 28.7838C41.1914 28.4354 40.4264 27.8966 39.9273 27.0433C39.6395 26.5509 39.7048 26.4475 40.2801 26.4475C42.8736 26.447 45.4609 26.3341 48.0395 26.0014V26.0009Z" fill="#ABD600"/>
<path d="M6.74482 14.8592C6.99562 15.0503 7.24445 15.244 7.49721 15.432C9.34976 16.8096 11.3357 17.9837 13.2793 19.2226C13.738 19.5148 13.7397 19.667 13.2451 19.9279C12.3067 20.423 11.2956 20.446 10.2952 20.2137C7.27668 19.5131 5.06488 17.7576 3.65537 14.9996C3.51105 14.7174 3.40681 14.4075 3.33171 14.0987C3.08567 13.0862 3.48135 12.4112 4.48791 12.1251C5.39947 11.8662 6.33149 11.8905 7.2509 12.0475C9.42318 12.4182 11.3349 13.3233 12.8828 14.9242C13.6702 15.7388 14.2321 16.6703 14.3243 17.8313C14.3358 17.9742 14.3414 18.1185 14.3346 18.2617C14.3175 18.6246 14.2021 18.7493 13.8333 18.5298C12.5821 17.7847 11.3231 17.0517 10.0542 16.3371C9.00901 15.7486 7.92007 15.2468 6.7451 14.8592H6.74482Z" fill="#ABD600"/>
<path d="M45.3349 14.7205C43.8949 15.2776 42.6148 15.9635 41.3516 16.6815C40.3083 17.2741 39.2787 17.8915 38.2377 18.4881C37.7557 18.7641 37.6921 18.7212 37.6753 18.1526C37.6481 17.2287 37.9959 16.4206 38.5294 15.7046C40.1393 13.5441 42.3573 12.4218 44.979 12.027C45.6776 11.9219 46.3799 11.8981 47.0829 12.0169C47.4021 12.0707 47.7059 12.1632 47.9939 12.3061C48.5959 12.6048 48.8671 13.1459 48.7508 13.8114C48.5185 15.1405 47.807 16.2247 46.9145 17.1797C45.3918 18.8084 43.5919 19.9825 41.3244 20.2877C40.4341 20.4076 39.5618 20.3457 38.7612 19.8942C38.284 19.6252 38.289 19.5098 38.7418 19.2197C40.8441 17.8744 42.997 16.605 44.988 15.0915C45.0981 15.0077 45.2483 14.962 45.3349 14.7205Z" fill="#ABD600"/>
<path d="M25.9564 3.94285C25.7697 5.14304 25.7047 6.35584 25.6495 7.56668C25.5868 8.94229 25.5795 10.3201 25.5495 11.6972C25.5377 12.2329 25.4514 12.2867 24.9703 12.0197C24.4241 11.7162 24.0169 11.2665 23.7034 10.7343C22.6119 8.88204 22.5301 6.87565 22.8479 4.82302C23.0407 3.57716 23.4697 2.40751 24.1489 1.33762C24.2347 1.20283 24.328 1.07169 24.4278 0.94671C25.448 -0.329423 26.6642 -0.319895 27.6383 1.00247C28.6857 2.4246 29.1573 4.0625 29.2806 5.80016C29.4014 7.50307 29.2215 9.16114 28.3228 10.6701C28.0068 11.2009 27.6094 11.6568 27.0756 11.9779C26.5855 12.2725 26.4608 12.2102 26.4669 11.645C26.4829 10.1868 26.4341 8.73016 26.349 7.27553C26.2837 6.16024 26.1713 5.04776 26.0797 3.93388C26.0385 3.93668 25.9973 3.93948 25.9561 3.94229L25.9564 3.94285Z" fill="#ABD600"/>
<path d="M26.3578 48.2335C26.5445 47.0333 26.6095 45.8205 26.6647 44.6096C26.7274 43.234 26.7347 41.8562 26.7647 40.4791C26.7765 39.9434 26.8628 39.8896 27.3439 40.1566C27.8901 40.4601 28.2973 40.9098 28.6108 41.442C29.7023 43.2943 29.7841 45.3006 29.4663 47.3533C29.2735 48.5991 28.8445 49.7688 28.1653 50.8387C28.0795 50.9735 27.9862 51.1046 27.8864 51.2296C26.8662 52.5057 25.65 52.4962 24.6759 51.1738C23.6285 49.7517 23.1569 48.1138 23.0336 46.3761C22.9128 44.6732 23.0927 43.0152 23.9914 41.5062C24.3074 40.9754 24.7048 40.5195 25.2386 40.1984C25.7287 39.9038 25.8534 39.9661 25.8473 40.5313C25.8313 41.9895 25.8801 43.4461 25.9652 44.9008C26.0305 46.0161 26.1429 47.1285 26.2345 48.2424C26.2757 48.2396 26.3169 48.2368 26.3581 48.234L26.3578 48.2335Z" fill="#ABD600"/>
</g>
<defs>
<clipPath id="clip0_1_2">
<rect width="52.0291" height="52" fill="white"/>
</clipPath>
</defs>
</svg>
