<svg width="24" height="24" viewBox="0 0 24 24" fill="none" xmlns="http://www.w3.org/2000/svg">
<path d="M8 21.0009H16M12 18.0009V21.0009M5.14 11.0009C4.9848 10.4786 4.95367 9.92731 5.0491 9.39088C5.14454 8.85444 5.36389 8.3477 5.6897 7.91099C6.01551 7.47429 6.43877 7.11967 6.9258 6.87539C7.41282 6.63111 7.95015 6.50391 8.495 6.50391C9.03985 6.50391 9.57718 6.63111 10.0642 6.87539C10.5512 7.11967 10.9745 7.47429 11.3003 7.91099C11.6261 8.3477 11.8455 8.85444 11.9409 9.39088C12.0363 9.92731 12.0052 10.4786 11.85 11.0009M12 17.0009C17 17.0009 20 14.3109 20 11.0009H4C4 14.3109 7 17.0009 12 17.0009Z" stroke="#002626" stroke-width="1.5" stroke-linecap="round" stroke-linejoin="round"/>
<path d="M12.1401 11.0009C11.9849 10.4786 11.9538 9.92731 12.0492 9.39088C12.1447 8.85444 12.364 8.3477 12.6898 7.91099C13.0156 7.47429 13.4389 7.11967 13.9259 6.87539C14.4129 6.63111 14.9503 6.50391 15.4951 6.50391C16.04 6.50391 16.5773 6.63111 17.0643 6.87539C17.5513 7.11967 17.9746 7.47429 18.3004 7.91099C18.6262 8.3477 18.8456 8.85444 18.941 9.39088C19.0364 9.92731 19.0053 10.4786 18.8501 11.0009" stroke="#002626" stroke-width="1.5" stroke-linecap="round" stroke-linejoin="round"/>
<path d="M15.5 6.5C15.5 6.04037 15.4095 5.58525 15.2336 5.16061C15.0577 4.73597 14.7999 4.35013 14.4749 4.02513C14.1499 3.70012 13.764 3.44231 13.3394 3.26642C12.9148 3.09053 12.4596 3 12 3C11.5404 3 11.0852 3.09053 10.6606 3.26642C10.236 3.44231 9.85013 3.70012 9.52513 4.02513C9.20012 4.35013 8.94231 4.73597 8.76642 5.16061C8.59053 5.58525 8.5 6.04037 8.5 6.5" stroke="#002626" stroke-width="1.5" stroke-linecap="round" stroke-linejoin="round"/>
</svg>
