<svg width="16" height="16" viewBox="0 0 16 16" fill="none" xmlns="http://www.w3.org/2000/svg">
<path d="M14.0538 5.72006V10.28C14.0538 11.0267 13.6538 11.7201 13.0071 12.1001L9.0471 14.3867C8.40043 14.7601 7.60043 14.7601 6.9471 14.3867L2.9871 12.1001C2.34043 11.7267 1.94043 11.0334 1.94043 10.28V5.72006C1.94043 4.9734 2.34043 4.28004 2.9871 3.90004L6.9471 1.61337C7.59376 1.24004 8.39376 1.24004 9.0471 1.61337L13.0071 3.90004C13.6538 4.28004 14.0538 4.96673 14.0538 5.72006Z" stroke="#002626" stroke-linecap="round" stroke-linejoin="round"/>
<path d="M7.99962 7.33333C8.8575 7.33333 9.55296 6.63787 9.55296 5.77999C9.55296 4.92211 8.8575 4.22668 7.99962 4.22668C7.14174 4.22668 6.44629 4.92211 6.44629 5.77999C6.44629 6.63787 7.14174 7.33333 7.99962 7.33333Z" stroke="#002626" stroke-linecap="round" stroke-linejoin="round"/>
<path d="M10.6663 11.1068C10.6663 9.90677 9.47301 8.93347 7.99967 8.93347C6.52634 8.93347 5.33301 9.90677 5.33301 11.1068" stroke="#002626" stroke-linecap="round" stroke-linejoin="round"/>
</svg>
