<svg width="24" height="24" viewBox="0 0 24 24" fill="none" xmlns="http://www.w3.org/2000/svg">
    <path
        d="M5.11675 4.104C5.10219 3.96471 5.11704 3.82392 5.16035 3.69074C5.20366 3.55756 5.27446 3.43496 5.36817 3.33089C5.46187 3.22681 5.5764 3.14358 5.70432 3.08658C5.83224 3.02958 5.97071 3.00008 6.11075 3H17.8907C18.0309 3.00007 18.1694 3.02959 18.2974 3.08665C18.4254 3.14371 18.54 3.22703 18.6337 3.33122C18.7275 3.43541 18.7982 3.55813 18.8415 3.69143C18.8847 3.82473 18.8995 3.96564 18.8848 4.105L17.1908 20.21C17.1389 20.7015 16.9068 21.1564 16.5393 21.487C16.1719 21.8175 15.695 22.0003 15.2008 22H8.80075C8.30477 22.0027 7.82547 21.8211 7.45589 21.4903C7.08631 21.1595 6.85282 20.7032 6.80075 20.21L5.11675 4.104Z"
        stroke="#111111" stroke-width="1.5" stroke-linecap="round" stroke-linejoin="round" />
    <path
        d="M6 12C6.86548 11.3509 7.91815 11 9 11C10.0819 11 11.1345 11.3509 12 12C12.8655 12.6491 13.9181 13 15 13C16.0819 13 17.1345 12.6491 18 12"
        stroke="#111111" stroke-width="1.5" stroke-linecap="round" stroke-linejoin="round" />
</svg>