<svg width="76" height="76" viewBox="0 0 76 76" fill="none" xmlns="http://www.w3.org/2000/svg">
<path d="M8 22.0949C8 18.9867 9.80032 16.1599 12.6169 14.8454L34.6169 4.57877C36.7613 3.57806 39.2387 3.57806 41.3831 4.57877L63.3831 14.8454C66.1997 16.1599 68 18.9867 68 22.0949V53.9277C68 57.038 66.1973 59.8664 63.3778 61.1796L41.3778 71.4267C39.2364 72.4241 36.7636 72.4241 34.6222 71.4267L12.6222 61.1796C9.80275 59.8664 8 57.038 8 53.9277V22.0949Z" fill="#002626"/>
<path d="M36.6377 8.45557C37.5019 8.05672 38.4981 8.05672 39.3623 8.45557L61.3623 18.6089C62.5131 19.1402 63.25 20.2925 63.25 21.5601V53.4409C63.25 54.7085 62.5131 55.8608 61.3623 56.3921L39.3623 66.5454C38.4981 66.9443 37.5019 66.9443 36.6377 66.5454L14.6377 56.3921C13.4869 55.8608 12.75 54.7085 12.75 53.4409V21.5601C12.75 20.2925 13.4869 19.1402 14.6377 18.6089L36.6377 8.45557Z" stroke="#E55912" stroke-width="1.5"/>
<path d="M37.3594 44.8438H45.8125V49H31.1562V45.4219L38.7031 37.3125C39.3698 36.5833 39.8958 35.9167 40.2812 35.3125C40.6771 34.6979 40.875 34.0885 40.875 33.4844C40.875 32.724 40.5938 32.1146 40.0312 31.6562C39.4688 31.1875 38.75 30.9531 37.875 30.9531C36.2812 30.9531 34.849 31.776 33.5781 33.4219L30.5781 30.5312C31.3385 29.3229 32.3906 28.3542 33.7344 27.625C35.0885 26.8958 36.5625 26.5312 38.1562 26.5312C40.2812 26.5312 42.0156 27.1615 43.3594 28.4219C44.7135 29.6719 45.3906 31.2708 45.3906 33.2188C45.3906 34.4479 45.1354 35.5573 44.625 36.5469C44.1146 37.526 43.4323 38.4688 42.5781 39.375L37.3594 44.8438Z" fill="#E55912"/>
<path d="M23.4023 37L24.2971 39.4719H26.8047L24.7019 40.9997L25.5051 43.4716L23.4028 41.9454L21.2996 43.4716L22.1028 40.9997L20 39.4719L22.5084 39.4475L23.4023 37Z" fill="#E55912"/>
<path d="M52.4023 37L53.2971 39.4719H55.8047L53.7019 40.9997L54.5051 43.4716L52.4028 41.9454L50.2996 43.4716L51.1028 40.9997L49 39.4719L51.5084 39.4475L52.4023 37Z" fill="#E55912"/>
<path d="M38.4023 15L39.2971 17.4719H41.8047L39.7019 18.9997L40.5051 21.4716L38.4028 19.9454L36.2996 21.4716L37.1028 18.9997L35 17.4719L37.5084 17.4475L38.4023 15Z" fill="#E55912"/>
</svg>
