<svg width="76" height="76" viewBox="0 0 76 76" fill="none" xmlns="http://www.w3.org/2000/svg">
<path d="M22.415 4.58104C22.7897 4.20887 23.2964 4 23.8245 4H53.1716C53.702 4 54.2107 4.21071 54.5858 4.58579L72.7756 22.7755C73.4784 23.4784 73.5584 24.5908 72.9634 25.3871L40.1043 69.3534C39.3037 70.4246 37.6977 70.4235 36.8986 69.3513L4.03688 25.2573C3.44197 24.4591 3.52474 23.3448 4.23106 22.6432L22.415 4.58104Z" fill="#002626"/>
<path d="M24.6211 8.75H52.3789C52.5777 8.75006 52.7686 8.82913 52.9092 8.96973L67.5645 23.625C67.8249 23.8858 67.8572 24.2974 67.6406 24.5957L39.1064 63.8877C38.807 64.3 38.193 64.3 37.8936 63.8877L9.35938 24.5957C9.14278 24.2974 9.17511 23.8858 9.43555 23.625L24.0908 8.96973C24.2314 8.82913 24.4223 8.75006 24.6211 8.75Z" stroke="#E55912" stroke-width="1.5"/>
<path d="M43 32.4531C44.0938 32.974 44.9531 33.7135 45.5781 34.6719C46.2135 35.6302 46.5312 36.7031 46.5312 37.8906C46.5312 39.7969 45.7604 41.3594 44.2188 42.5781C42.6771 43.7865 40.6927 44.3906 38.2656 44.3906C36.6927 44.3906 35.1823 44.1146 33.7344 43.5625C32.2865 43 31.0885 42.2396 30.1406 41.2812L32.6719 38.0156C33.3073 38.6823 34.099 39.2031 35.0469 39.5781C35.9948 39.9427 36.9635 40.125 37.9531 40.125C39.151 40.125 40.1198 39.8594 40.8594 39.3281C41.6094 38.7969 41.9844 38.1146 41.9844 37.2812C41.9844 36.4375 41.625 35.75 40.9062 35.2188C40.1875 34.6771 39.2656 34.4062 38.1406 34.4062H34.9375V30.5938H38.1406C39.1094 30.5938 39.9062 30.3698 40.5312 29.9219C41.1562 29.474 41.4688 28.9062 41.4688 28.2188C41.4688 27.5104 41.125 26.9323 40.4375 26.4844C39.75 26.026 38.8594 25.7969 37.7656 25.7969C36.901 25.7969 36.0677 25.9427 35.2656 26.2344C34.4635 26.5156 33.8021 26.9115 33.2812 27.4219L30.9062 24.2188C31.7708 23.3854 32.8594 22.7292 34.1719 22.25C35.4948 21.7708 36.8594 21.5312 38.2656 21.5312C40.5469 21.5312 42.4062 22.0938 43.8438 23.2188C45.2917 24.3438 46.0156 25.7969 46.0156 27.5781C46.0156 28.6094 45.7448 29.5521 45.2031 30.4062C44.6719 31.25 43.9375 31.9323 43 32.4531Z" fill="#E55912"/>
<path d="M35 9L60 34" stroke="#E55912" stroke-width="1.5"/>
<path d="M67 24H50M52.5 9.5L49.5 24" stroke="#E55912" stroke-width="1.5"/>
<path d="M50 24L58.5 15" stroke="#E55912" stroke-width="1.5"/>
</svg>
