<svg width="76" height="76" viewBox="0 0 76 76" fill="none" xmlns="http://www.w3.org/2000/svg">
<path d="M8 11C8 6.58172 11.5817 3 16 3H60C64.4183 3 68 6.58172 68 11V53.9277C68 57.038 66.1973 59.8664 63.3778 61.1796L41.3778 71.4267C39.2364 72.4241 36.7636 72.4241 34.6222 71.4267L12.6222 61.1796C9.80275 59.8664 8 57.038 8 53.9277V11Z" fill="#002626"/>
<path d="M16 8.00049H60C61.6569 8.00049 63 9.34363 63 11.0005V53.4409C63 54.6111 62.3193 55.6742 61.2568 56.1646L39.2568 66.3188C38.4593 66.6868 37.5407 66.6868 36.7432 66.3188L14.7432 56.1646C13.6807 55.6742 13 54.6111 13 53.4409V11.0005C13 9.34363 14.3431 8.00049 16 8.00049Z" stroke="#E55912" stroke-width="2"/>
<path d="M37.3125 21.9219H40.4375V44H36.0312V27.1719L32.4062 29.2188L30.5156 25.6562L37.3125 21.9219Z" fill="#E55912"/>
<path d="M23.4023 32L24.2971 34.4719H26.8047L24.7019 35.9997L25.5051 38.4716L23.4028 36.9454L21.2996 38.4716L22.1028 35.9997L20 34.4719L22.5084 34.4475L23.4023 32Z" fill="#E55912"/>
<path d="M52.4023 32L53.2971 34.4719H55.8047L53.7019 35.9997L54.5051 38.4716L52.4028 36.9454L50.2996 38.4716L51.1028 35.9997L49 34.4719L51.5084 34.4475L52.4023 32Z" fill="#E55912"/>
</svg>
